<?xml version="1.0" encoding="utf-8"?>
<!-- Svg Vector Icons : http://www.onlinewebfonts.com/icon -->
<!DOCTYPE svg PUBLIC "-//W3C//DTD SVG 1.1//EN" "http://www.w3.org/Graphics/SVG/1.1/DTD/svg11.dtd">
<svg version="1.1" xmlns="http://www.w3.org/2000/svg" xmlns:xlink="http://www.w3.org/1999/xlink" x="0px" y="0px" viewBox="4 164 991 672" enable-background="new 0 0 1000 1000" xml:space="preserve">
<metadata> Svg Vector Icons : http://www.onlinewebfonts.com/icon </metadata>
<g><path d="M990,244.1c0,170.6,0,341.1,0,511.7c-0.4,1.7-0.7,3.5-1.3,5.2c-3.3,10-5.2,20.9-10.4,29.9c-16.4,28.1-41.7,41-74.2,41c-269.4-0.1-538.8,0-808.2,0c-1.8,0-3.6,0-5.4,0c-37.7-0.7-70-27.3-78.1-64.2c-0.9-4.3-1.6-8.6-2.4-12.9c0-169.8,0-339.5,0-509.3c0.4-1.9,0.6-3.9,1.2-5.8c3.3-10.1,5.1-21,10.3-29.9c16.2-28.1,41.4-41.5,73.9-41.5c269.7,0,539.5,0,809.2,0c1.6,0,3.2,0,4.8,0c32.5,1.6,56.8,16.6,71.3,45.6C985.5,223.1,987,234,990,244.1z M134.3,238.2c2.2,2.1,3.4,3.2,4.6,4.3C230,323.3,321.1,404.3,412.5,485c19.6,17.3,39.6,34.1,60.5,49.8c19.9,15.1,34.2,14.7,54.6,0.3c12-8.5,23.7-17.4,34.7-27.1c99.8-88.2,199.3-176.6,299-264.9c1.5-1.4,3.4-2.3,5.1-3.5c-0.5-0.5-1-0.9-1.5-1.4C621.8,238.2,378.7,238.2,134.3,238.2z M141.9,760.6c239.6,0,477.7,0,717,0C779.4,690,701,620.3,622.3,550.4c-12.4,10.9-24.5,21.5-36.6,32.1c-36.3,31.7-78,38.2-123.6,26.5c-17.6-4.6-32.8-13.9-46.4-25.9c-12.3-10.8-24.7-21.6-37.3-32.6C299.6,620.5,221.2,690.1,141.9,760.6z M325.5,503.7c-81.3-71.3-162.2-142.2-243.8-213.8c0,145.2,0,288.7,0,433.7C163.5,649.8,244.3,577,325.5,503.7z M675.1,503.7c81.5,73.4,162.1,146.2,243.4,219.4c0-144.7,0-288.2,0-432.9C837,361.8,756.4,432.5,675.1,503.7z"/></g>
</svg>
